<svg xmlns="http://www.w3.org/2000/svg" xmlns:xlink="http://www.w3.org/1999/xlink" viewBox="0 0 443.78 451.68"><defs><style>.cls-1{fill:none;}.cls-2{fill:url(#linear-gradient);}.cls-3{fill:#003a5d;}.cls-4{fill:#00c0dd;}.cls-5{fill:#005cb8;}.cls-6{fill:url(#linear-gradient-2);}.cls-7{clip-path:url(#clip-path);}.cls-8{fill:url(#radial-gradient);}</style><linearGradient id="linear-gradient" x1="214.08" y1="329.93" x2="214.08" y2="218.63" gradientUnits="userSpaceOnUse"><stop offset="0" stop-color="#fff041"/><stop offset="1" stop-color="#fab74f"/></linearGradient><linearGradient id="linear-gradient-2" x1="213.87" y1="357.35" x2="213.87" y2="376.82" gradientUnits="userSpaceOnUse"><stop offset="0.07" stop-color="#00c0dd"/><stop offset="0.16" stop-color="#00c0dd" stop-opacity="0.8"/><stop offset="0.26" stop-color="#00c0dd" stop-opacity="0.59"/><stop offset="0.37" stop-color="#00c0dd" stop-opacity="0.41"/><stop offset="0.49" stop-color="#00c0dd" stop-opacity="0.26"/><stop offset="0.6" stop-color="#00c0dd" stop-opacity="0.14"/><stop offset="0.73" stop-color="#00c0dd" stop-opacity="0.06"/><stop offset="0.85" stop-color="#00c0dd" stop-opacity="0.02"/><stop offset="1" stop-color="#00c0dd" stop-opacity="0"/></linearGradient><clipPath id="clip-path"><path class="cls-1" d="M267.16,274.81l-22.41,31.83-3-14.55-3.85,24.3-6.22,8.85V311.93h-6.52v2l0,0v-2.17l-5.18,9.46v10.25l.07-.09,1.57-.26-1.45,1.92.1,1.09a20,20,0,0,0-15.22.92L202.64,331c-.42-5-.74-8.88-.74-8.89a.55.55,0,0,0-.17-.35.56.56,0,0,0,.26-.43c0-.06-.66-4.58-.66-4.6,0-.25-.3-.49-.79-.66a1.05,1.05,0,0,0,0-.12h0s0,0,0-.05l.06,0c.62-.18,1-.45,1.08-.76a.33.33,0,0,0,0-.13c0-.37-1.18-1.07-1.18-1.16a.36.36,0,0,0-.15-.26,7.75,7.75,0,0,1,1-3,2.28,2.28,0,0,1,.55-.6,2.72,2.72,0,0,0,.53-1.73,1.1,1.1,0,0,0,.18-.28c0-.12,0-.23,0-.35,0-1.19-.59-9.44-3.23-10.71,0-.15,0-.53,0-.56h0c0-.11-.21-.2-.5-.23,0-.72-.11-3-.11-3s0,0-.07,0l-.06,0s-.09,2.32-.11,3c-.29,0-.51.12-.51.23h0s0,.39,0,.56c-2.7,1.23-3.23,9.52-3.23,10.71,0,.12,0,.23,0,.35a.88.88,0,0,0,.18.28,2.77,2.77,0,0,0,.52,1.73,2.25,2.25,0,0,1,.56.62,8.83,8.83,0,0,1,1,3,.36.36,0,0,0-.14.26c0,.09-1.18.79-1.18,1.16a.22.22,0,0,0,0,.13c0,.31.45.58,1.08.76l.06,0s0,0,0,.05h0a.75.75,0,0,1,0,.12c-.48.17-.78.41-.78.66,0,0-.17,1.19-.34,2.35l-3.53-6.13V284.07A12.42,12.42,0,0,0,182.78,272v-15a.52.52,0,0,0-1,0v14.76a12,12,0,0,0-1.92-.16,3,3,0,0,0-3,3v11.56l-3.41-5.92L118.25,256,60.46,406.87l153.62,44.81L367.7,406.87,318.71,263Z"/></clipPath><radialGradient id="radial-gradient" cx="214.29" cy="355.49" r="64.07" xlink:href="#linear-gradient-2"/></defs><title>inginiterechargelogo</title><g id="Layer_2" data-name="Layer 2"><g id="Layer_1-2" data-name="Layer 1"><path d="M49.28,141.85V97.67C49.28,90,45.64,86.3,38,86.3H0V216.21l15.57-4.56V156.28l10.25-1.52,7.79,51.66,15.91-5.27-8.17-48.59C46.65,151.47,49.28,148.28,49.28,141.85Zm-15.57-3.71c0,1.17-.34,1.57-1.49,1.7l-16.65,2.7V99H32.22c1.16,0,1.49.34,1.49,1.51Z"/><polygon points="101.57 172.07 75.67 178.79 75.95 147.17 95.75 144.09 95.75 130.26 75.67 132.83 75.67 99.34 102.07 99.34 102.07 86.3 60.1 86.3 60.1 197.87 101.57 186.27 101.57 172.07"/><path d="M110.21,168.79c0,7.69,3.69,13.32,11.26,11.18l23.45-6.86c8.06-2.42,11.27-3.67,11.27-11.36V140.09l-15.57,2.85.19,17.07c0,1.17-.46,1.3-1.68,1.7l-11.76,2.93c-1.45.44-1.49-.34-1.49-1.51l-.11-62.29c0-1.17.34-1.5,1.5-1.5h12.25c1.16,0,1.49.33,1.49,1.5v16.74l15.57-1.52V97.67c0-7.69-3.48-11.37-11.1-11.37H121.63c-7.62,0-11.42,3.68-11.42,11.37Z"/><polygon points="180.73 86.3 165.16 86.3 165.16 167.3 180.73 162.81 180.73 131.83 193.85 129.98 193.85 158.82 208.49 154.62 208.49 86.3 193.85 86.3 193.85 116.23 180.73 118.08 180.73 86.3"/><path d="M319.91,128.26V97.67c0-7.69-3.65-11.37-11.27-11.37h-34.3v84.08l15.57,4.42V137.14l6.8,1.31,7.12,40.6,16.95,4.77L312,140.62C317.34,139.53,319.91,134.7,319.91,128.26Zm-15.57-4.34c0,1.17-.33,1.51-1.49,1.51l-12.94-2.15V99h12.94c1.16,0,1.49.34,1.49,1.51Z"/><path d="M368.33,86.3h-26.1C334.61,86.3,331,90,331,97.67V179c0,7.69,3.33,8.93,11.42,11.21l25.94,7.52c8.72,2.6,11.26-3.67,11.26-11.36V137.24l-23.93-3.63V147.5l8.53,1.85v29.49c0,1.17-.24,1.87-1.49,1.5L348,176.67a2,2,0,0,1-1.49-2.27V100.68c0-1.18.33-1.51,1.49-1.51H362.7c1.16,0,1.49.33,1.49,1.51v21.18l15.4,1.85v-26C379.59,90,376,86.3,368.33,86.3Z"/><polygon points="428.35 99.34 428.35 86.3 390.96 86.3 390.96 204.34 428.22 215.19 428.35 198.82 406.53 193.03 406.53 154.83 423.14 157.4 423.14 143.44 406.53 141.03 406.53 99.34 428.35 99.34"/><path d="M227.63,86.3h-.15a7.8,7.8,0,0,0-7.8,7.79v60.36l14.12,4.23v-29l14.52,2.4v30.84l15,4.28V94.09a7.79,7.79,0,0,0-7.79-7.79Zm20.69,32L233.8,115.9V99.61a.83.83,0,0,1,.83-.82l12.86.54a.83.83,0,0,1,.83.83Z"/><rect x="32.78" width="14.81" height="64.6"/><polygon points="73.51 26.81 96.89 64.6 110.63 64.6 110.63 0 96.26 0 96.26 35.74 74.22 0 59.14 0 59.14 64.6 73.51 64.6 73.51 26.81"/><polygon points="138.53 38.73 161.11 38.73 161.11 26.05 138.53 26.05 138.53 12.85 166.73 12.85 166.73 0 123.72 0 123.72 64.6 138.53 64.6 138.53 38.73"/><rect x="178.21" width="14.81" height="64.6"/><polygon points="219.71 26.81 243.09 64.6 256.83 64.6 256.83 0 242.46 0 242.46 35.74 220.42 0 205.34 0 205.34 64.6 219.71 64.6 219.71 26.81"/><rect x="270.69" width="14.81" height="64.6"/><polygon points="343.24 0 295.85 0 295.85 12.94 312.09 12.94 312.09 64.6 326.91 64.6 326.91 12.94 343.24 12.94 343.24 0"/><polygon points="395.57 51.75 367.37 51.75 367.37 37.92 389.95 37.92 389.95 25.25 367.37 25.25 367.37 12.85 395.57 12.85 395.57 0 352.56 0 352.56 64.6 395.57 64.6 395.57 51.75"/><path d="M432.25,215.26l.45-.58a2.49,2.49,0,0,0,1.88.87c1.08,0,1.42-.58,1.42-1.05,0-1.55-3.56-.68-3.56-2.83,0-1,.88-1.67,2.07-1.67a2.84,2.84,0,0,1,2.13.84l-.45.55a2.28,2.28,0,0,0-1.74-.72c-.71,0-1.24.39-1.24,1,0,1.35,3.56.57,3.56,2.82,0,.86-.59,1.76-2.21,1.76A3,3,0,0,1,432.25,215.26Z"/><path d="M443,216.11v-5.06l-2,5.06h-.3l-2.05-5.06v5.06h-.75v-6H439l1.87,4.63,1.87-4.63h1.07v6Z"/><polygon class="cls-2" points="367.69 406.87 367.69 265.04 214.08 220.1 60.46 264.91 60.46 406.87 214.08 405.16 367.69 406.87"/><path class="cls-1" d="M66.44,408.62,160.28,436,66.46,408.62Z"/><path class="cls-1" d="M61.36,287.84q1.06-.46,2.16-.87h0a33.56,33.56,0,0,1,4.33-1.25,34.63,34.63,0,0,1,6.79-.81V273.48l1.45-.23V284.9a35.05,35.05,0,0,1,7,.82l.71.17V265.51l10.12-2.79v-7.57l-33.45,9.76v23.34l.67-.31Z"/><path class="cls-1" d="M173.45,280.27l3.41,5.92V274.63a3,3,0,0,1,3-3,12,12,0,0,1,1.92.16V257.06a.52.52,0,0,1,1,0v15a12.42,12.42,0,0,1,9.47,12.05v28.87l3.53,6.13c.17-1.16.34-2.34.34-2.35,0-.25.3-.49.78-.66a.75.75,0,0,0,0-.12h0s0,0,0-.05l-.06,0c-.63-.18-1-.45-1.08-.76a.22.22,0,0,1,0-.13c0-.37,1.18-1.07,1.18-1.16a.36.36,0,0,1,.14-.26,8.83,8.83,0,0,0-1-3,2.25,2.25,0,0,0-.56-.62,2.77,2.77,0,0,1-.52-1.73.88.88,0,0,1-.18-.28c0-.12,0-.23,0-.35,0-1.19.53-9.48,3.23-10.71,0-.17,0-.53,0-.56h0c0-.11.22-.2.51-.23,0-.72.11-3,.11-3l.06,0s.07,0,.07,0,.08,2.32.11,3c.29,0,.5.12.5.23h0s0,.41,0,.56c2.64,1.27,3.23,9.52,3.23,10.71,0,.12,0,.23,0,.35a1.1,1.1,0,0,1-.18.28,2.72,2.72,0,0,1-.53,1.73,2.28,2.28,0,0,0-.55.6,7.75,7.75,0,0,0-1,3,.36.36,0,0,1,.15.26c0,.09,1.18.79,1.18,1.16a.33.33,0,0,1,0,.13c-.05.31-.46.58-1.08.76l-.06,0s0,0,0,.05h0a1.05,1.05,0,0,1,0,.12c.49.17.79.41.79.66,0,0,.66,4.54.66,4.6a.56.56,0,0,1-.26.43.55.55,0,0,1,.17.35s.32,3.88.74,8.89l2.37,4.12a20,20,0,0,1,15.22-.92l-.1-1.09,1.45-1.92-1.57.26-.07.09V321.28l5.18-9.46V314l0,0v-2h6.52v13.31l6.22-8.85,3.85-24.3,3,14.55,2.27-3.22V269.67l6.14-11.22V240.17a.52.52,0,1,1,1,0v16.41l2-3.74v-8.32a.52.52,0,0,1,1,0V251l3.1-5.67h0l15.15,4.75V238L214.08,220.1l-53.66,15.65,13,27.79Z"/><polygon class="cls-1" points="361.93 263.23 361.93 263.35 367.69 265.04 367.69 264.91 361.93 263.23"/><polygon class="cls-3" points="275.52 238.02 275.52 250.05 275.52 257.33 275.52 373.48 286.45 377.51 286.45 377.46 286.45 260.76 286.45 253.48 286.45 241.21 286.45 215.3 286.45 214.9 275.52 233.5 275.52 238.02"/><path class="cls-3" d="M155.36,225v147.3l18.09-6.6V263.54l-13-27.79Zm14.42,40.8,1.54,3v8.08l-1.54-2.66Zm0,15.56,1.54,2.41v6.05l-1.54-2.19Zm0,11.8,1.54,2v4.77l-1.54-1.83Zm0,9.39,1.54,1.68v3.9l-1.54-1.54Zm0,7.75,1.54,1.41V315l-1.54-1.29Zm0,6.6,1.54,1.18v2.87l-1.54-1.08Zm0,5.77,1.54,1v2.55l-1.54-.88Zm0,5.16,1.54.8v2.32l-1.54-.72Zm0,4.71,1.54.64v2.15l-1.54-.56Zm0,4.38,1.54.49v2l-1.54-.41Zm0,4.15,1.54.34v1.94l-1.54-.27Zm0,4,1.54.2v1.89l-1.54-.14Zm0,3.9,1.54.06v1.87h-1.54Zm0,3.86,1.54-.06v1.87l-1.54.13Zm0,3.9,1.54-.2v1.91l-1.54.27Zm0,4,1.54-.34v2l-1.54.41Zm-4.1-102.78,1.54,3v8.85L165.68,267Zm0,17,1.54,2.41v6.63l-1.54-2.19Zm0,12.89,1.54,2V295l-1.54-1.83Zm0,10.26,1.54,1.68V304l-1.54-1.53Zm0,8.47,1.54,1.4v3.62l-1.54-1.29Zm0,7.21,1.54,1.18v3.14L165.68,317Zm0,6.3,1.54,1v2.8l-1.54-.89Zm0,5.64,1.54.8V329l-1.54-.72Zm0,5.14,1.54.64v2.36l-1.54-.56Zm0,4.79,1.54.49v2.21l-1.54-.41Zm0,4.53,1.54.34v2.13l-1.54-.27Zm0,4.36,1.54.2v2.07l-1.54-.13Zm0,4.26,1.54.06v2.05h-1.54Zm0,4.22,1.54-.07V355l-1.54.13Zm0,4.26,1.54-.2v2.09l-1.54.27Zm0,4.36,1.54-.34v2.16l-1.54.42ZM161.59,250l1.53,2.95v9.63L161.59,260Zm0,18.44,1.53,2.41v7.21l-1.53-2.19Zm0,14,1.53,2v5.68l-1.53-1.83Zm0,11.12,1.53,1.67v4.66l-1.53-1.54Zm0,9.18,1.53,1.41v3.94l-1.53-1.29Zm0,7.82,1.53,1.18v3.42l-1.53-1.07Zm0,6.84,1.53,1v3l-1.53-.88Zm0,6.12,1.53.8v2.76l-1.53-.72Zm0,5.58,1.53.63v2.56l-1.53-.56Zm0,5.19,1.53.48v2.42l-1.53-.42Zm0,4.91,1.53.34v2.31l-1.53-.27Zm0,4.73,1.53.2v2.25l-1.53-.13Zm0,4.62,1.53.06v2.23h-1.53Zm0,4.58,1.53-.07v2.24l-1.53.13Zm0,4.62,1.53-.2v2.27l-1.53.27Zm0,4.73,1.53-.35v2.36l-1.53.41ZM159,365.61l-1.54.41V363.4l1.54-.34Zm0-5-1.54.27v-2.53l1.54-.2Zm0-4.89-1.54.13v-2.48l1.54-.07Zm0-4.82h-1.54v-2.47l1.54.07Zm0-4.82-1.54-.13v-2.5l1.54.2Zm0-4.89-1.54-.27v-2.57l1.54.35Zm0-5-1.54-.41V333l1.54.48Zm0-5.29-1.54-.56v-2.84l1.54.64Zm0-5.63-1.54-.72V321.4l1.54.8Zm0-6.11-1.54-.89v-3.38l1.54,1Zm0-6.77-1.54-1.07v-3.8l1.54,1.18Zm0-7.64-1.54-1.29V299l1.54,1.41Zm0-8.86-1.54-1.54v-5.16l1.54,1.67Zm0-10.55-1.54-1.84v-6.3l1.54,2Zm0-13-1.54-2.19v-8l1.54,2.41Zm0-16.73-1.54-2.66V242.16l1.54,3Z"/><path class="cls-3" d="M361.93,263.35v2.14l-5.43,3.13v-6.85l-5.42-1.59v11.58l-5.42,3.13V258.73l5.09,1.35-16.17-4.72-5-1.46-2.52,2.1-8.36,7V389.38l15.87,5.85,33.12,11.64V265Zm-38,10.57,3.11-2.18,2.31-1.62v14.17l-2.31,1.33-3.11,1.8v-13.5Zm5.42,97.27-2.31-.41-3.11-.55v-9.76l3.11.27,2.31.21Zm0-20.33H324v-9.61l3.11-.28,2.31-.2Zm0-20.33-2.31.41-3.11.54V321.42l3.11-.84,2.31-.62Zm0-21.64-2.31.84L324,310.86V299.62l3.11-1.45,2.31-1.08Zm10.85,64.21-5.42-1V361.42l5.42.48Zm0-22.24h-5.42V340.3l5.42-.48Zm0-22.25-5.42,1V318.51l5.42-1.45Zm0-23.67-5.42,2V294.56l5.42-2.53Zm0-26.92-5.42,3.13V266.32l5.42-3.8Zm10.85,97-5.42-1V362.37l5.42.48Zm0-24.16h-5.42V339.35l5.42-.48Zm0-24.16-5.42,1V315.6l5.42-1.45Zm0-25.71-5.42,2V289.5l5.42-2.53Zm10.85,75.94-5.43-1V363.32l5.43.47Zm0-26.07H356.5V338.4l5.43-.48Zm0-26.07-5.43,1V312.7l5.43-1.46Zm0-27.74-5.43,2V284.44l5.43-2.53Z"/><path class="cls-3" d="M110.65,388.57l-.46-68.31c-4.82-1.65-14.56-2.89-26.4-3.3-2.73-.1-5.58-.15-8.5-.15-4.51,0-8.83.12-12.84.34h-.17l-1.82.11v84.44a95.89,95.89,0,0,0,11.18,1.09c1.2,0,2.42.07,3.67.07,2.94,0,5.78-.13,8.48-.36,1.74-.15,3.42-.34,5-.56,12.08-1.65,20.51-5.12,21.71-7a2.57,2.57,0,0,1,.16-.54v-.73Zm-16.12-64.8c3.06.32,5.54.69,7.39,1.06v67.5a57.11,57.11,0,0,1-7.25,2.07l-.14,0ZM81.21,323l2.58.09c1.7.06,3.31.14,4.81.24v72.23c-1.53.23-3.14.42-4.81.57-.85.08-1.7.15-2.58.21ZM67.88,396.18V323q3.45-.12,7.39-.12v73.6C72.7,396.48,70.23,396.37,67.88,396.18Z"/><path d="M367.69,406.88l-49-17.5V263l8.36-7,2.52-2.1,5,1.46v-18.1L312.39,229v-4l-25.94-9.67V377.51l-10.93-4V250.05l-15.15-4.75h0l-3.1,5.67v-6.45a.52.52,0,0,0-1,0v8.32l-2,3.74V240.17a.52.52,0,1,0-1,0v18.28L247,269.67v33.75l-2.27,3.22-3-14.55-3.85,24.3-6.22,8.85V311.93h-6.52v2l0,0v-2.17l-5.18,9.46v10.25l.07-.09,1.57-.26-1.45,1.92.1,1.09a20,20,0,0,0-15.22.92L202.64,331c-.42-5-.74-8.88-.74-8.89a.55.55,0,0,0-.17-.35.56.56,0,0,0,.26-.43c0-.06-.66-4.58-.66-4.6,0-.25-.3-.49-.79-.66a1.05,1.05,0,0,0,0-.12h0s0,0,0-.05l.06,0c.62-.18,1-.45,1.08-.76a.33.33,0,0,0,0-.13c0-.37-1.18-1.07-1.18-1.16a.36.36,0,0,0-.15-.26,7.75,7.75,0,0,1,1-3,2.28,2.28,0,0,1,.55-.6,2.72,2.72,0,0,0,.53-1.73,1.1,1.1,0,0,0,.18-.28c0-.12,0-.23,0-.35,0-1.19-.59-9.44-3.23-10.71,0-.15,0-.53,0-.56h0c0-.11-.21-.2-.5-.23,0-.72-.11-3-.11-3s0,0-.07,0l-.06,0s-.09,2.32-.11,3c-.29,0-.51.12-.51.23h0s0,.39,0,.56c-2.7,1.23-3.23,9.52-3.23,10.71,0,.12,0,.23,0,.35a.88.88,0,0,0,.18.28,2.77,2.77,0,0,0,.52,1.73,2.25,2.25,0,0,1,.56.62,8.83,8.83,0,0,1,1,3,.36.36,0,0,0-.14.26c0,.09-1.18.79-1.18,1.16a.22.22,0,0,0,0,.13c0,.31.45.58,1.08.76l.06,0s0,0,0,.05h0a.75.75,0,0,1,0,.12c-.48.17-.78.41-.78.66,0,0-.17,1.19-.34,2.35l-3.53-6.13V284.07A12.42,12.42,0,0,0,182.78,272v-15a.52.52,0,0,0-1,0v14.76a12,12,0,0,0-1.92-.16,3,3,0,0,0-3,3v11.56l-3.41-5.92v85.4l-18.09,6.6V225l-21.51,7.17v4.14l4.19,6,7.09,10.15v16.23l-11.28-13.42-7.91-9.43-7.69-9.16-.36-.43.09-5.89.23-14.05,0-2.33L83.79,228.09v19.24l.28-.09-.06.09,9.9,7v8.39l-10.12,2.79v20.38A35.83,35.83,0,0,1,87.4,287h0c.74.27,1.46.56,2.18.87l.23.1c.68.3,1.35.63,2,1l.3.15c.65.35,1.28.71,1.91,1.1l.3.18c.63.39,1.24.8,1.84,1.23l.24.18c.62.45,1.23.91,1.82,1.4l.12.09a39.74,39.74,0,0,1,3.54,3.33l.1.11c.54.57,1.06,1.17,1.56,1.79l.14.16c.5.61,1,1.24,1.45,1.88l.11.17c.47.66.93,1.33,1.36,2a.41.41,0,0,1,0,.09,41,41,0,0,1,4.34,9.42l0,.07c.26.83.5,1.67.71,2.52l0,.08c.21.86.4,1.73.56,2.61h0c-3.44-2.11-14.52-3.77-28.53-4.25-2.73-.09-5.58-.15-8.5-.15-5.26,0-10.27.17-14.83.46v3.71l1.82-.11h.17c4-.22,8.33-.34,12.84-.34,2.92,0,5.77.05,8.5.15,11.84.41,21.58,1.65,26.4,3.3l.46,68.31,0,5.15v.73a2.57,2.57,0,0,0-.16.54c-1.2,1.84-9.63,5.31-21.71,7-1.61.22-3.29.41-5,.56-2.7.23-5.54.36-8.48.36-1.25,0-2.47,0-3.67-.07a95.89,95.89,0,0,1-11.18-1.09v5.16l6,1.75h0L160.28,436l53.8,15.69ZM293.1,296.27l2.22-1.61,5.63-4.08,7.52-5.45V385.61l-13.15-4.84L293.1,380Zm15.37-68.73v43.6L301,277.73l-5.63,4.94-2.22,1.95V247.33l2.65-3.41ZM253.85,282l6.51-11.39h0l8.84-15.44v116l-2-.76-6.8-2.5-6.51-2.4V282Zm-141,39.61Zm5.39-54.39V255.35l15.6,15.46.88.86L145.13,282v94l-11.28,4.11-15.6,5.69Z"/><path d="M76.1,284.9V273.25l-1.45.23v11.43l.82,0Z"/><polygon class="cls-4" points="133.85 236.28 118.25 213.95 118.21 216.28 117.98 230.33 117.89 236.22 118.25 236.65 125.94 245.81 133.85 255.24 145.13 268.66 145.13 252.43 138.04 242.28 133.85 236.28"/><polygon class="cls-4" points="302.04 245.76 300.95 247.04 293.17 256.3 293.11 262.85 293.1 264.14 294.03 263.14 300.95 255.64 308.37 247.6 308.46 247.51 308.46 246.97 308.46 238.12 302.57 245.12 302.04 245.76"/><polygon class="cls-4" points="295.32 269.32 293.17 271.49 293.1 277.96 295.32 275.96 300.95 270.86 308.46 264.06 308.46 256.13 300.95 263.67 295.32 269.32"/><polygon class="cls-4" points="260.37 284.42 260.36 284.43 256.49 289.89 256.49 289.96 256.49 305.51 256.49 315.32 260.36 312.07 264.94 308.23 264.94 277.97 264.16 279.07 260.37 284.42"/><polygon class="cls-4" points="323.96 321.42 323.96 331.48 327.07 330.94 329.38 330.53 329.38 319.96 327.07 320.58 323.96 321.42"/><polygon class="cls-4" points="323.96 299.62 323.96 310.87 327.07 309.73 329.38 308.89 329.38 297.09 327.07 298.17 323.96 299.62"/><polygon class="cls-4" points="323.96 341.25 323.96 350.86 327.07 350.86 329.38 350.86 329.38 340.77 327.07 340.97 323.96 341.25"/><polygon class="cls-4" points="323.96 360.47 323.96 370.23 327.07 370.78 329.38 371.19 329.38 360.95 327.07 360.75 323.96 360.47"/><polygon class="cls-4" points="323.96 273.92 323.96 276.14 323.96 287.42 327.07 285.62 329.38 284.29 329.38 277.77 329.38 270.12 327.07 271.74 323.96 273.92"/><polygon class="cls-4" points="334.81 350.86 340.23 350.86 340.23 339.82 334.81 340.3 334.81 350.86"/><polygon class="cls-4" points="334.81 306.92 340.23 304.94 340.23 292.03 334.81 294.56 334.81 306.92"/><polygon class="cls-4" points="334.81 281.15 340.23 278.02 340.23 262.52 334.81 266.32 334.81 281.15"/><polygon class="cls-4" points="334.81 329.57 340.23 328.61 340.23 317.06 334.81 318.51 334.81 329.57"/><polygon class="cls-4" points="334.81 372.15 340.23 373.1 340.23 361.9 334.81 361.42 334.81 372.15"/><polygon class="cls-4" points="345.66 302.97 351.08 300.99 351.08 286.97 345.66 289.5 345.66 302.97"/><polygon class="cls-4" points="345.66 258.6 345.66 274.89 351.08 271.76 351.08 260.18 351.08 260.17 350.75 260.08 345.66 258.6"/><polygon class="cls-4" points="356.5 261.77 356.5 268.62 361.93 265.49 361.93 263.35 356.5 261.77"/><polygon class="cls-4" points="345.66 350.86 351.08 350.86 351.08 338.87 345.66 339.35 345.66 350.86"/><polygon class="cls-4" points="345.66 327.66 351.08 326.7 351.08 314.15 345.66 315.6 345.66 327.66"/><polygon class="cls-4" points="345.66 374.06 351.08 375.02 351.08 362.85 345.66 362.37 345.66 374.06"/><polygon class="cls-4" points="356.5 375.97 361.93 376.93 361.93 363.79 356.5 363.32 356.5 375.97"/><polygon class="cls-4" points="356.5 299.02 361.93 297.05 361.93 281.92 356.5 284.44 356.5 299.02"/><polygon class="cls-4" points="356.5 325.75 361.93 324.79 361.93 311.24 356.5 312.7 356.5 325.75"/><polygon class="cls-4" points="356.5 350.86 361.93 350.86 361.93 337.92 356.5 338.4 356.5 350.86"/><polygon class="cls-4" points="157.49 366.02 159.03 365.61 159.03 363.06 157.49 363.4 157.49 366.02"/><polygon class="cls-4" points="157.49 318.19 159.03 319.08 159.03 315.79 157.49 314.81 157.49 318.19"/><polygon class="cls-4" points="157.49 311.24 159.03 312.31 159.03 308.62 157.49 307.44 157.49 311.24"/><polygon class="cls-4" points="157.49 324.47 159.03 325.19 159.03 322.2 157.49 321.4 157.49 324.47"/><polygon class="cls-4" points="157.49 330.26 159.03 330.82 159.03 328.06 157.49 327.42 157.49 330.26"/><polygon class="cls-4" points="157.49 335.7 159.03 336.11 159.03 333.5 157.49 333.02 157.49 335.7"/><polygon class="cls-4" points="157.49 252.85 159.03 255.51 159.03 245.11 157.49 242.16 157.49 252.85"/><polygon class="cls-4" points="157.49 270.05 159.03 272.24 159.03 264.45 157.49 262.04 157.49 270.05"/><polygon class="cls-4" points="157.49 294.27 159.03 295.81 159.03 290.78 157.49 289.11 157.49 294.27"/><polygon class="cls-4" points="157.49 303.38 159.03 304.67 159.03 300.42 157.49 299.01 157.49 303.38"/><polygon class="cls-4" points="157.49 283.42 159.03 285.25 159.03 279.12 157.49 277.12 157.49 283.42"/><polygon class="cls-4" points="157.49 360.84 159.03 360.56 159.03 358.11 157.49 358.31 157.49 360.84"/><polygon class="cls-4" points="157.49 355.81 159.03 355.68 159.03 353.26 157.49 353.33 157.49 355.81"/><polygon class="cls-4" points="157.49 350.86 159.03 350.86 159.03 348.46 157.49 348.39 157.49 350.86"/><polygon class="cls-4" points="157.49 340.88 159.03 341.15 159.03 338.65 157.49 338.31 157.49 340.88"/><polygon class="cls-4" points="157.49 345.91 159.03 346.04 159.03 343.61 157.49 343.41 157.49 345.91"/><polygon class="cls-4" points="161.59 298.37 163.13 299.91 163.13 295.25 161.59 293.58 161.59 298.37"/><polygon class="cls-4" points="161.59 306.82 163.13 308.11 163.13 304.17 161.59 302.76 161.59 306.82"/><polygon class="cls-4" points="161.59 288.31 163.13 290.14 163.13 284.46 161.59 282.45 161.59 288.31"/><polygon class="cls-4" points="161.59 275.9 163.13 278.09 163.13 270.88 161.59 268.47 161.59 275.9"/><polygon class="cls-4" points="161.59 326.38 163.13 327.1 163.13 324.33 161.59 323.54 161.59 326.38"/><polygon class="cls-4" points="161.59 336.8 163.13 337.21 163.13 334.79 161.59 334.31 161.59 336.8"/><polygon class="cls-4" points="161.59 331.75 163.13 332.31 163.13 329.75 161.59 329.12 161.59 331.75"/><polygon class="cls-4" points="161.59 320.56 163.13 321.44 163.13 318.4 161.59 317.42 161.59 320.56"/><polygon class="cls-4" points="161.59 314.11 163.13 315.18 163.13 311.76 161.59 310.58 161.59 314.11"/><polygon class="cls-4" points="161.59 346.27 163.13 346.4 163.13 344.15 161.59 343.95 161.59 346.27"/><polygon class="cls-4" points="161.59 259.95 163.13 262.61 163.13 252.98 161.59 250.03 161.59 259.95"/><polygon class="cls-4" points="161.59 364.92 163.13 364.51 163.13 362.15 161.59 362.5 161.59 364.92"/><polygon class="cls-4" points="161.59 341.6 163.13 341.88 163.13 339.56 161.59 339.22 161.59 341.6"/><polygon class="cls-4" points="161.59 355.45 163.13 355.32 163.13 353.08 161.59 353.15 161.59 355.45"/><polygon class="cls-4" points="161.59 350.86 163.13 350.86 163.13 348.63 161.59 348.57 161.59 350.86"/><polygon class="cls-4" points="161.59 360.11 163.13 359.84 163.13 357.57 161.59 357.77 161.59 360.11"/><polygon class="cls-4" points="165.69 267.04 167.22 269.7 167.22 260.85 165.69 257.9 165.69 267.04"/><polygon class="cls-4" points="165.69 363.82 167.22 363.41 167.22 361.25 165.69 361.59 165.69 363.82"/><polygon class="cls-4" points="165.69 293.19 167.22 295.02 167.22 289.8 165.69 287.79 165.69 293.19"/><polygon class="cls-4" points="165.69 328.29 167.22 329.01 167.22 326.47 165.69 325.67 165.69 328.29"/><polygon class="cls-4" points="165.69 333.25 167.22 333.81 167.22 331.45 165.69 330.81 165.69 333.25"/><polygon class="cls-4" points="165.69 322.92 167.22 323.81 167.22 321.01 165.69 320.03 165.69 322.92"/><polygon class="cls-4" points="165.69 337.89 167.22 338.3 167.22 336.09 165.69 335.6 165.69 337.89"/><polygon class="cls-4" points="165.69 310.25 167.22 311.54 167.22 307.92 165.69 306.52 165.69 310.25"/><polygon class="cls-4" points="165.69 316.98 167.22 318.05 167.22 314.91 165.69 313.73 165.69 316.98"/><polygon class="cls-4" points="165.69 342.33 167.22 342.6 167.22 340.47 165.69 340.13 165.69 342.33"/><polygon class="cls-4" points="165.69 302.47 167.22 304 167.22 299.73 165.69 298.05 165.69 302.47"/><polygon class="cls-4" points="165.69 359.39 167.22 359.12 167.22 357.03 165.69 357.23 165.69 359.39"/><polygon class="cls-4" points="165.69 355.09 167.22 354.96 167.22 352.9 165.69 352.97 165.69 355.09"/><polygon class="cls-4" points="165.69 281.75 167.22 283.94 167.22 277.31 165.69 274.9 165.69 281.75"/><polygon class="cls-4" points="165.69 350.86 167.22 350.86 167.22 348.81 165.69 348.75 165.69 350.86"/><polygon class="cls-4" points="165.69 346.63 167.22 346.76 167.22 344.69 165.69 344.49 165.69 346.63"/><polygon class="cls-4" points="169.78 298.07 171.32 299.9 171.32 295.13 169.78 293.13 169.78 298.07"/><polygon class="cls-4" points="169.78 306.56 171.32 308.1 171.32 304.2 169.78 302.52 169.78 306.56"/><polygon class="cls-4" points="169.78 313.69 171.32 314.98 171.32 311.68 169.78 310.27 169.78 313.69"/><polygon class="cls-4" points="169.78 350.86 171.32 350.86 171.32 348.99 169.78 348.93 169.78 350.86"/><polygon class="cls-4" points="169.78 346.98 171.32 347.12 171.32 345.23 169.78 345.03 169.78 346.98"/><polygon class="cls-4" points="169.78 343.05 171.32 343.32 171.32 341.38 169.78 341.04 169.78 343.05"/><polygon class="cls-4" points="169.78 358.67 171.32 358.4 171.32 356.49 169.78 356.69 169.78 358.67"/><polygon class="cls-4" points="169.78 319.84 171.32 320.92 171.32 318.05 169.78 316.87 169.78 319.84"/><polygon class="cls-4" points="169.78 354.73 171.32 354.6 171.32 352.73 169.78 352.79 169.78 354.73"/><polygon class="cls-4" points="169.78 274.14 171.32 276.8 171.32 268.72 169.78 265.77 169.78 274.14"/><polygon class="cls-4" points="169.78 362.73 171.32 362.32 171.32 360.34 169.78 360.68 169.78 362.73"/><polygon class="cls-4" points="169.78 287.6 171.32 289.79 171.32 283.74 169.78 281.33 169.78 287.6"/><polygon class="cls-4" points="169.78 338.99 171.32 339.4 171.32 337.38 169.78 336.89 169.78 338.99"/><polygon class="cls-4" points="169.78 325.29 171.32 326.17 171.32 323.62 169.78 322.64 169.78 325.29"/><polygon class="cls-4" points="169.78 334.74 171.32 335.3 171.32 333.15 169.78 332.51 169.78 334.74"/><polygon class="cls-4" points="169.78 330.2 171.32 330.92 171.32 328.6 169.78 327.8 169.78 330.2"/><path class="cls-4" d="M111.76,314.89l0-.08c-.21-.85-.45-1.69-.71-2.52l0-.07a41,41,0,0,0-4.34-9.42.41.41,0,0,0,0-.09c-.43-.69-.89-1.36-1.36-2l-.11-.17c-.47-.64-1-1.27-1.45-1.88l-.14-.16c-.5-.62-1-1.22-1.56-1.79l-.1-.11a39.74,39.74,0,0,0-3.54-3.33l-.12-.09c-.59-.49-1.2-1-1.82-1.4l-.24-.18c-.6-.43-1.21-.84-1.84-1.23l-.3-.18c-.63-.39-1.26-.75-1.91-1.1l-.3-.15c-.66-.35-1.33-.68-2-1l-.23-.1c-.72-.31-1.44-.6-2.18-.87h0a35.83,35.83,0,0,0-3.61-1.08l-.71-.17a32.92,32.92,0,0,0-3.44-.58,34.68,34.68,0,0,0-3.54-.24h-.63l-.82,0a34.63,34.63,0,0,0-6.79.81A33.56,33.56,0,0,0,63.53,287h0q-1.1.4-2.16.87l-.23.1-.67.32v25.3c4.56-.29,9.57-.46,14.83-.46,2.92,0,5.77.06,8.5.15,14,.48,25.09,2.14,28.53,4.25h0C112.16,316.62,112,315.75,111.76,314.89Z"/><path class="cls-4" d="M112.86,321.59Z"/><path class="cls-4" d="M67.88,396.18c2.35.19,4.82.3,7.39.3v-73.6q-3.94,0-7.39.12Z"/><path class="cls-4" d="M81.21,323v73.34c.88-.06,1.73-.13,2.58-.21,1.67-.15,3.28-.34,4.81-.57V323.28c-1.5-.1-3.11-.18-4.81-.24Z"/><path class="cls-4" d="M94.53,394.43l.14,0a57.11,57.11,0,0,0,7.25-2.07v-67.5c-1.85-.37-4.33-.74-7.39-1.06Z"/><polygon class="cls-4" points="258.99 334.42 258.99 337.13 260.36 336.71 261.1 336.49 261.1 333.65 260.36 333.92 258.99 334.42"/><polygon class="cls-4" points="258.99 329.82 258.99 332.72 260.36 332.17 261.1 331.87 261.1 328.84 260.36 329.18 258.99 329.82"/><polygon class="cls-4" points="258.99 324.84 258.99 327.99 260.36 327.29 261.1 326.92 261.1 323.62 260.36 324.04 258.99 324.84"/><polygon class="cls-4" points="258.99 338.73 258.99 341.31 260.36 341.02 261.1 340.86 261.1 338.17 260.36 338.36 258.99 338.73"/><polygon class="cls-4" points="256.49 329.26 257.62 328.68 257.62 325.63 256.49 326.28 256.49 329.26"/><polygon class="cls-4" points="256.49 333.72 257.62 333.27 257.62 330.46 256.49 330.99 256.49 333.72"/><polygon class="cls-4" points="256.49 337.89 257.62 337.54 257.62 334.92 256.49 335.33 256.49 337.89"/><polygon class="cls-4" points="262.8 326.06 264.94 324.97 264.94 321.4 262.8 322.63 262.8 326.06"/><polygon class="cls-4" points="262.8 320.45 264.94 319.12 264.94 315.34 262.8 316.91 262.8 320.45"/><polygon class="cls-4" points="262.8 331.19 264.94 330.33 264.94 327.05 262.8 328.04 262.8 331.19"/><polygon class="cls-4" points="262.8 335.97 264.94 335.32 264.94 332.25 262.8 333.03 262.8 335.97"/><polygon class="cls-4" points="256.49 324.38 257.62 323.67 257.62 320.7 256.49 321.53 256.49 324.38"/><polygon class="cls-4" points="258.99 342.85 258.99 346.83 260.36 346.74 261.1 346.68 261.1 342.47 260.36 342.61 258.99 342.85"/><polygon class="cls-4" points="256.49 347.01 257.62 346.93 257.62 343.09 256.49 343.29 256.49 347.01"/><polygon class="cls-4" points="262.8 346.56 264.94 346.41 264.94 341.8 262.8 342.17 262.8 346.56"/><polygon class="cls-4" points="256.49 341.83 257.62 341.6 257.62 339.1 256.49 339.4 256.49 341.83"/><polygon class="cls-4" points="258.99 319.7 258.99 322.82 260.36 321.97 261.1 321.51 261.1 318.15 260.36 318.69 258.99 319.7"/><polygon class="cls-4" points="262.8 340.51 264.94 340.06 264.94 337.14 262.8 337.71 262.8 340.51"/><polygon class="cls-5" points="133.85 270.81 118.25 255.35 118.25 256.03 118.25 260.8 118.25 267.2 118.25 385.8 133.85 380.11 145.13 376 145.13 281.98 134.72 271.67 133.85 270.81"/><polygon class="cls-5" points="293.17 256.3 300.95 247.04 302.04 245.76 302.57 245.12 308.46 238.12 308.46 227.53 295.75 243.92 293.1 247.34 293.1 262.85 293.1 264.14 293.11 262.85 293.17 256.3"/><polygon class="cls-5" points="295.32 282.67 300.95 277.73 308.46 271.14 308.46 264.06 300.95 270.86 295.32 275.96 293.1 277.96 293.1 284.62 295.32 282.67"/><polygon class="cls-5" points="293.17 271.49 295.32 269.32 300.95 263.67 308.46 256.13 308.46 247.63 308.46 247.51 308.37 247.6 300.95 255.64 294.03 263.14 293.1 264.14 293.1 277.96 293.17 271.49"/><path class="cls-5" d="M260.36,270.59,253.85,282V365.5l6.51,2.4,6.8,2.5,2,.76v-116l-8.84,15.44Zm-2.74,76.34-1.13.08v-3.72l1.13-.2Zm0-5.33-1.13.23V339.4l1.13-.3Zm0-4.06-1.13.35v-2.56l1.13-.41Zm0-4.27-1.13.45V331l1.13-.53Zm0-4.59-1.13.58v-3l1.13-.65Zm0-5-1.13.71v-2.85l1.13-.83Zm3.48,23-.74.06-1.37.09v-4l1.37-.25.74-.13Zm0-5.82-.74.16-1.37.29v-2.58l1.37-.37.74-.19Zm0-4.37-.74.22-1.37.42v-2.71l1.37-.5.74-.27Zm0-4.62-.74.3-1.37.55v-2.9l1.37-.64.74-.34Zm0-4.95-.74.37L259,328v-3.15l1.37-.8.74-.42Zm0-5.41-.74.46-1.37.85V319.7l1.37-1,.74-.54Zm3.84-2.39-2.14,1.33v-3.54l2.14-1.57Zm0,2.28V325l-2.14,1.09v-3.43Zm0,5.65v3.28l-2.14.86V328Zm0,5.2v3.07l-2.14.65V333Zm0,4.89v2.92l-2.14.45v-2.8Zm0,4.66v4.61l-2.14.15v-4.39Zm-.78-62.73.78-1.1v30.26l-4.58,3.84-3.87,3.25V289.89l3.87-5.46h0Z"/><polygon class="cls-5" points="295.32 294.66 293.1 296.27 293.1 379.96 295.32 380.77 308.46 385.61 308.46 380.38 308.46 286.84 308.46 285.13 300.95 290.58 295.32 294.66"/><path class="cls-5" d="M60.46,288.25h0l.67-.32Z"/><path class="cls-5" d="M98.36,293.25c.62.52,1.23,1.05,1.82,1.61C99.59,294.3,99,293.77,98.36,293.25Z"/><path class="cls-5" d="M100.18,294.86c.59.56,1.16,1.13,1.72,1.72C101.34,296,100.77,295.42,100.18,294.86Z"/><path class="cls-5" d="M109.91,309.19a41.19,41.19,0,0,0-3.24-6.39A41.19,41.19,0,0,1,109.91,309.19Z"/><path class="cls-5" d="M111,312.22c-.33-1-.7-2-1.1-3C110.31,310.18,110.68,311.19,111,312.22Z"/><path class="cls-5" d="M62.45,317.15c4-.22,8.33-.34,12.84-.34,2.92,0,5.77.05,8.5.15-2.73-.1-5.58-.15-8.5-.15C70.78,316.81,66.46,316.93,62.45,317.15Z"/><path class="cls-5" d="M60.46,317.27l1.82-.11-1.82.11Z"/><path class="cls-5" d="M110.19,320.26c-4.22-1.44-12.2-2.58-22.06-3.11C98,317.68,106,318.82,110.19,320.26Z"/><polygon class="cls-6" points="214.21 355.66 148.66 379.46 279.09 379.57 214.21 355.66"/><path class="cls-4" d="M336.83,400.84l-4.55-1.68h-47.5l-19.42-12.22h33.75l-4.55-1.67H262.7l-14.9-9.38h21.32l-4.56-1.68H245.13l-11.63-7.32h11.19l-4.55-1.68h-9.31l-9.2-5.79h2.78l-4.55-1.68H219l-1.27-.8-2.37-.87-.2-.08-.2-.07h0l-.69-.25-.92.33,0,0-.11,0-.36.13-2.59.94-1,.62h-.72l-4.63,1.68h2.69l-9.21,5.79h-9.46l-4.63,1.68h11.42L183,374.21H163l-4.63,1.68h21.94l-14.89,9.38h-32.9l-4.63,1.67h34.86l-19.42,12.22H112.69a18.17,18.17,0,0,1-2.65,1.68h30.67l-32,20.12.2.06,2,.57,3.8,1.1h56.85l-8.69,14,1.67.49,9-14.53h39.71v28.73l.88.26.8-.23V422.69h39.71l9,14.53,1.67-.48-8.7-14.05h56.79l3.84-1.12,1.91-.55.25-.08-31.94-20.1Zm-55.2-1.68H242l-7.57-12.22h27.76Zm-66.71-23.27h10.71l5.8,9.38H214.92Zm0-1.68v-7.32h5.13l4.54,7.32Zm0-9v-5.79h.5l3.59,5.79Zm-1.68-5.79v5.79h-4.1l3.59-5.79Zm0,7.47v7.32h-9.67l4.53-7.32Zm0,9v9.38H196.72l5.81-9.38Zm0,11.05v12.22H188.11l7.57-12.22Zm1.68,0h17.55l7.58,12.22H214.92Zm44.62-1.67H233.41l-5.81-9.38h17.05ZM242,374.21H226.56L222,366.89h8.33Zm-14.3-9H221l-3.59-5.79h1.09Zm-18-5.79h1.08l-3.59,5.79h-6.7Zm-11.88,7.47h8.33l-4.54,7.32H186.17Zm-14.3,9h17.05l-5.81,9.38H168.61Zm-17.56,11.05h27.77l-7.58,12.22H146.52ZM111.8,421l32.06-20.18h41.23L172.59,421Zm62.77,0,12.5-20.18h26.17V421Zm40.35,0V400.84h26.17L253.59,421Zm101.43,0H255.56l-12.5-20.18H284.3Z"/><g class="cls-7"><circle class="cls-8" cx="213.94" cy="356.45" r="55.86"/></g></g></g></svg>